<svg width="681" height="600" viewBox="0 0 681 600" fill="none" xmlns="http://www.w3.org/2000/svg">
<path d="M0.232544 360.947C115.276 350.202 89.4224 141.797 17.2325 121.447M43.7325 131.447L219.733 337.447C245.233 338.447 297.733 327.847 303.733 277.447C311.233 214.447 188.733 274.447 214.733 271.447C216.23 271.258 216.131 271.383 225.733 269.947M154.733 596.947C215.933 582.947 223.566 554.78 219.733 542.447C181.684 259.879 171.834 116.236 313.733 1.94702M310.733 197.447C311.533 210.647 312.066 285.947 312.233 321.947L307.233 347.947C317.066 323.78 337.733 276.547 341.733 280.947C346.733 286.447 368.733 352.447 381.733 345.947C392.133 340.747 459.066 304.78 491.233 287.447C484.513 260.365 435.249 256.775 411.733 332.447C430.437 361.622 469.96 360.847 500.233 304.947C509.399 327.114 528.433 370.847 531.233 368.447C534.733 365.447 588.233 189.447 599.233 194.947C608.033 199.347 627.233 316.447 635.733 374.447L676.979 326.401C678.65 324.456 677.267 321.447 674.703 321.447H570.733" stroke="#1A1A1A" stroke-width="5"/>
</svg>
